:FULLY-SPECIFIED
:FORCE-ALL-JOINTS-BE-3DOF
:DEGREES
1529
root -5.6688 15.3463 19.6311 -172.18 -2.20003 179.233
lfemur -43.3179 9.21734 -24.689
ltibia 81.857 -0 0
lfoot -11.3056 19.7251 0.0444715
ltoes -27.0804 0 0
rfemur -46.4422 -2.99257 15.9557
rtibia 70.5148 -0 0
rfoot -18.1316 -7.69808 -0.0452676
rtoes -21.8979 0 0
lowerback 19.322 0.751665 1.92163
upperback -1.2139 1.9425 2.77552
thorax -12.1612 0.946902 1.38611
lowerneck -3.88842 6.81998 2.51
upperneck 4.19015 9.68555 -9.09366
head 2.65446 4.7091 -2.73225
lclavicle -1.19271e-15 -4.77083e-15 0
lhumerus 44.3715 -63.7807 56.3103
lradius 112.351 -0 0
lwrist 18.2124 0 0
lhand -23.0751 39.7428 0.000767005
lfingers 7.12502 -0 0
lthumb 3.37062 69.6961 0.000740607
rclavicle -1.19271e-15 -4.77083e-15 0
rhumerus -37.4033 47.2291 -79.8235
rradius 111.186 -0 0
rwrist -40.5065 0 0
rhand 5.69103 -31.4602 0.0847856
rfingers 7.12502 -0 0
rthumb 31.0246 -58.8224 0.0928174
1530
root -5.73234 15.3521 19.6552 -172.134 -5.00221 178.845
lfemur -42.545 9.30874 -24.5559
ltibia 80.6975 -0 0
lfoot -11.5263 19.5871 0.0500167
ltoes -27.5726 0 0
rfemur -46.7165 -3.45065 15.9165
rtibia 71.3004 -0 0
rfoot -17.93 -7.85179 -0.050912
rtoes -21.3923 0 0
lowerback 19.2385 0.713074 1.56707
upperback -1.20182 1.79812 2.76606
thorax -12.0892 0.899186 1.6184
lowerneck -3.94816 6.47399 2.24127
upperneck 4.19657 9.21002 -8.79305
head 2.63729 4.47283 -2.61822
lclavicle -1.19271e-15 -4.77083e-15 0
lhumerus 41.1529 -62.6606 58.885
lradius 110.354 -0 0
lwrist 17.8225 0 0
lhand -23.0779 39.5583 0.000862628
lfingers 7.12502 -0 0
lthumb 3.36787 69.5116 0.000832938
rclavicle -1.19271e-15 -4.77083e-15 0
rhumerus -37.8522 46.7444 -80.4969
rradius 111.675 -0 0
rwrist -40.674 0 0
rhand 5.89881 -31.1809 0.0953602
rfingers 7.12502 -0 0
rthumb 31.2221 -58.5009 0.104395
1531
root -5.79588 15.3579 19.6793 -172.064 -7.94442 178.433
lfemur -41.7329 9.40279 -24.4147
ltibia 79.4798 -0 0
lfoot -11.758 19.4422 0.0552678
ltoes -28.0895 0 0
rfemur -47.0044 -3.93187 15.8777
rtibia 72.1254 -0 0
rfoot -17.7183 -8.01322 -0.0562569
rtoes -20.8613 0 0
lowerback 19.151 0.671994 1.1948
upperback -1.1891 1.64651 2.75609
thorax -12.0138 0.848763 1.86226
lowerneck -4.00909 6.11037 1.95964
upperneck 4.20057 8.71062 -8.47785
head 2.61875 4.22475 -2.49844
lclavicle -1.19271e-15 -4.77083e-15 0
lhumerus 38.0181 -61.4186 61.3401
lradius 108.257 -0 0
lwrist 17.413 0 0
lhand -23.0809 39.3645 0.000953176
lfingers 7.12502 -0 0
lthumb 3.36498 69.3179 0.00092037
rclavicle -1.19271e-15 -4.77083e-15 0
rhumerus -38.3103 46.2315 -81.1917
rradius 112.188 -0 0
rwrist -40.8498 0 0
rhand 6.11707 -30.8877 0.105375
rfingers 7.12502 -0 0
rthumb 31.4296 -58.1632 0.115359
1532
root -5.85942 15.3637 19.7034 -171.967 -11.0099 177.995
lfemur -40.886 9.4987 -24.266
ltibia 78.2109 -0 0
lfoot -11.9995 19.2912 0.0601164
ltoes -28.6281 0 0
rfemur -47.3042 -4.43357 15.8398
rtibia 72.9851 -0 0
rfoot -17.4976 -8.18147 -0.0611922
rtoes -20.308 0 0
lowerback 19.0602 0.62858 0.806921
upperback -1.17581 1.48851 2.74567
thorax -11.9354 0.795876 2.11633
lowerneck -4.07063 5.73112 1.66677
upperneck 4.20179 8.19018 -8.14986
head 2.59889 3.96628 -2.37357
lclavicle -1.19271e-15 -4.77083e-15 0
lhumerus 34.9971 -60.0619 63.6487
lradius 106.072 -0 0
lwrist 16.9863 0 0
lhand -23.084 39.1626 0.00103678
lfingers 7.12502 -0 0
lthumb 3.36198 69.116 0.0010011
rclavicle -1.19271e-15 -4.77083e-15 0
rhumerus -38.7738 45.6931 -81.9027
rradius 112.723 -0 0
rwrist -41.0331 0 0
rhand 6.34457 -30.582 0.114622
rfingers 7.12502 -0 0
rthumb 31.6459 -57.8113 0.125484
1533
root -5.92296 15.3696 19.7275 -171.84 -14.1819 177.532
lfemur -40.009 9.59567 -24.1107
ltibia 76.8976 -0 0
lfoot -12.2495 19.1348 0.0644643
ltoes -29.1857 0 0
rfemur -47.6144 -4.95303 15.8033
rtibia 73.875 -0 0
rfoot -17.2692 -8.35562 -0.0656178
rtoes -19.7353 0 0
lowerback 18.9665 0.582999 0.405534
upperback -1.16204 1.32498 2.73484
thorax -11.8545 0.740772 2.37921
lowerneck -4.13224 5.33826 1.36427
upperneck 4.19989 7.65151 -7.81082
head 2.57774 3.69879 -2.24427
lclavicle -1.19271e-15 -4.77083e-15 0
lhumerus 32.1102 -58.5993 65.7935
lradius 103.81 -0 0
lwrist 16.5447 0 0
lhand -23.0873 38.9536 0.00111175
lfingers 7.12502 -0 0
lthumb 3.35886 68.9071 0.00107349
rclavicle -1.19271e-15 -4.77083e-15 0
rhumerus -39.2389 45.1317 -82.6249
rradius 113.276 -0 0
rwrist -41.2228 0 0
rhand 6.58008 -30.2656 0.122915
rfingers 7.12502 -0 0
rthumb 31.8699 -57.447 0.134564
1534
root -5.9865 15.3754 19.7516 -171.68 -17.4436 177.039
lfemur -39.1064 9.69296 -23.9493
ltibia 75.5466 -0 0
lfoot -12.5066 18.974 0.068225
ltoes -29.7591 0 0
rfemur -47.9335 -5.48757 15.7687
rtibia 74.7903 -0 0
rfoot -17.0342 -8.53479 -0.0694457
rtoes -19.1463 0 0
lowerback 18.8705 0.53543 -0.00726425
upperback -1.14783 1.15677 2.72366
thorax -11.7716 0.683703 2.64953
lowerneck -4.1934 4.93382 1.05374
upperneck 4.19458 7.09744 -7.46249
head 2.55536 3.42369 -2.1112
lclavicle -1.19271e-15 -4.77083e-15 0
lhumerus 29.3693 -57.0415 67.7652
lradius 101.483 -0 0
lwrist 16.0904 0 0
lhand -23.0906 38.7386 0.00117659
lfingers 7.12502 -0 0
lthumb 3.35566 68.6921 0.0011361
rclavicle -1.19271e-15 -4.77083e-15 0
rhumerus -39.7021 44.55 -83.3537
rradius 113.846 -0 0
rwrist -41.4179 0 0
rhand 6.82238 -29.9401 0.130088
rfingers 7.12502 -0 0
rthumb 32.1003 -57.0723 0.142418
1535
root -6.05004 15.3812 19.7757 -171.482 -20.778 176.515
lfemur -38.1827 9.78986 -23.7825
ltibia 74.1649 -0 0
lfoot -12.7696 18.8095 0.0713246
ltoes -30.3457 0 0
rfemur -48.2597 -6.03448 15.7364
rtibia 75.7264 -0 0
rfoot -16.7939 -8.71805 -0.0726008
rtoes -18.5438 0 0
lowerback 18.7726 0.486062 -0.429378
upperback -1.13327 0.984737 2.71219
thorax -11.6871 0.624931 2.92593
lowerneck -4.25364 4.51983 0.736776
upperneck 4.18565 6.5308 -7.10658
head 2.53182 3.14239 -1.97503
lclavicle -1.19271e-15 -4.77083e-15 0
lhumerus 26.7798 -55.4 69.5615
lradius 99.1034 -0 0
lwrist 15.6258 0 0
lhand -23.094 38.5187 0.00123004
lfingers 7.12502 -0 0
lthumb 3.35238 68.4723 0.0011877
rclavicle -1.19271e-15 -4.77083e-15 0
rhumerus -40.1605 43.9509 -84.0849
rradius 114.428 -0 0
rwrist -41.6175 0 0
rhand 7.07024 -29.6072 0.136
rfingers 7.12502 -0 0
rthumb 32.336 -56.689 0.148891
1536
root -6.11357 15.387 19.7998 -171.24 -24.1682 175.956
lfemur -37.2423 9.8857 -23.6113
ltibia 72.7592 -0 0
lfoot -13.0372 18.6421 0.073703
ltoes -30.9424 0 0
rfemur -48.5917 -6.59103 15.7067
rtibia 76.6788 -0 0
rfoot -16.5494 -8.90449 -0.0750217
rtoes -17.9308 0 0
lowerback 18.6734 0.435101 -0.858713
upperback -1.11843 0.809725 2.70047
thorax -11.6014 0.564723 3.20701
lowerneck -4.31253 4.09834 0.414947
upperneck 4.17294 5.95441 -6.74481
head 2.50719 2.85627 -1.83642
lclavicle -1.19271e-15 -4.77083e-15 0
lhumerus 24.3418 -53.6871 71.1851
lradius 96.6825 -0 0
lwrist 15.1531 0 0
lhand -23.0974 38.295 0.00127104
lfingers 7.12502 -0 0
lthumb 3.34905 68.2486 0.0012273
rclavicle -1.19271e-15 -4.77083e-15 0
rhumerus -40.6113 43.3371 -84.8145
rradius 115.021 -0 0
rwrist -41.8205 0 0
rhand 7.32242 -29.2685 0.140537
rfingers 7.12502 -0 0
rthumb 32.5758 -56.299 0.153859
